<svg width="72" height="72" viewBox="0 0 72 72" fill="none" xmlns="http://www.w3.org/2000/svg">
<g filter="url(#filter0_d_731_3134)">
<rect x="8" y="8" width="56" height="56" rx="28" fill="#0C8CE9"/>
<path d="M27 33H45V43C45 43.5304 44.7893 44.0391 44.4142 44.4142C44.0391 44.7893 43.5304 45 43 45H29C28.4696 45 27.9609 44.7893 27.5858 44.4142C27.2107 44.0391 27 43.5304 27 43V33Z" stroke="white" stroke-width="2" stroke-linecap="round" stroke-linejoin="round"/>
<path d="M27 33L29.45 28.1C29.617 27.7686 29.8728 27.4903 30.1889 27.296C30.505 27.1018 30.869 26.9993 31.24 27H40.76C41.1327 26.9974 41.4988 27.099 41.8168 27.2934C42.1349 27.4877 42.3923 27.7671 42.56 28.1L45 33" stroke="white" stroke-width="2" stroke-linecap="round" stroke-linejoin="round"/>
<path d="M36 27V33" stroke="white" stroke-width="2" stroke-linecap="round" stroke-linejoin="round"/>
</g>
<defs>
<filter id="filter0_d_731_3134" x="0" y="0" width="72" height="72" filterUnits="userSpaceOnUse" color-interpolation-filters="sRGB">
<feFlood flood-opacity="0" result="BackgroundImageFix"/>
<feColorMatrix in="SourceAlpha" type="matrix" values="0 0 0 0 0 0 0 0 0 0 0 0 0 0 0 0 0 0 127 0" result="hardAlpha"/>
<feMorphology radius="8" operator="dilate" in="SourceAlpha" result="effect1_dropShadow_731_3134"/>
<feOffset/>
<feComposite in2="hardAlpha" operator="out"/>
<feColorMatrix type="matrix" values="0 0 0 0 0.0470588 0 0 0 0 0.54902 0 0 0 0 0.913725 0 0 0 0.2 0"/>
<feBlend mode="normal" in2="BackgroundImageFix" result="effect1_dropShadow_731_3134"/>
<feBlend mode="normal" in="SourceGraphic" in2="effect1_dropShadow_731_3134" result="shape"/>
</filter>
</defs>
</svg>
