<svg width="72" height="72" viewBox="0 0 72 72" fill="none" xmlns="http://www.w3.org/2000/svg">
<g filter="url(#filter0_d_731_3182)">
<rect x="8" y="8" width="56" height="56" rx="28" fill="#0C8CE9"/>
<path d="M36 37C38.7614 37 41 34.7614 41 32C41 29.2386 38.7614 27 36 27C33.2386 27 31 29.2386 31 32C31 34.7614 33.2386 37 36 37Z" stroke="white" stroke-width="2" stroke-linecap="round" stroke-linejoin="round"/>
<path d="M44 45C44 42.8783 43.1571 40.8434 41.6569 39.3431C40.1566 37.8429 38.1217 37 36 37C33.8783 37 31.8434 37.8429 30.3431 39.3431C28.8429 40.8434 28 42.8783 28 45" stroke="white" stroke-width="2" stroke-linecap="round" stroke-linejoin="round"/>
</g>
<defs>
<filter id="filter0_d_731_3182" x="0" y="0" width="72" height="72" filterUnits="userSpaceOnUse" color-interpolation-filters="sRGB">
<feFlood flood-opacity="0" result="BackgroundImageFix"/>
<feColorMatrix in="SourceAlpha" type="matrix" values="0 0 0 0 0 0 0 0 0 0 0 0 0 0 0 0 0 0 127 0" result="hardAlpha"/>
<feMorphology radius="8" operator="dilate" in="SourceAlpha" result="effect1_dropShadow_731_3182"/>
<feOffset/>
<feComposite in2="hardAlpha" operator="out"/>
<feColorMatrix type="matrix" values="0 0 0 0 0.0470588 0 0 0 0 0.54902 0 0 0 0 0.913725 0 0 0 0.2 0"/>
<feBlend mode="normal" in2="BackgroundImageFix" result="effect1_dropShadow_731_3182"/>
<feBlend mode="normal" in="SourceGraphic" in2="effect1_dropShadow_731_3182" result="shape"/>
</filter>
</defs>
</svg>
