<svg width="72" height="72" viewBox="0 0 72 72" fill="none" xmlns="http://www.w3.org/2000/svg">
<g filter="url(#filter0_d_731_3172)">
<rect x="8" y="8" width="56" height="56" rx="28" fill="#0C8CE9"/>
<path d="M41 38H41.01" stroke="white" stroke-width="2" stroke-linecap="round" stroke-linejoin="round"/>
<path d="M31 31H43C43.5304 31 44.0391 31.2107 44.4142 31.5858C44.7893 31.9609 45 32.4696 45 33V43C45 43.5304 44.7893 44.0391 44.4142 44.4142C44.0391 44.7893 43.5304 45 43 45H29C28.4696 45 27.9609 44.7893 27.5858 44.4142C27.2107 44.0391 27 43.5304 27 43V29C27 28.4696 27.2107 27.9609 27.5858 27.5858C27.9609 27.2107 28.4696 27 29 27H43" stroke="white" stroke-width="2" stroke-linecap="round" stroke-linejoin="round"/>
</g>
<defs>
<filter id="filter0_d_731_3172" x="0" y="0" width="72" height="72" filterUnits="userSpaceOnUse" color-interpolation-filters="sRGB">
<feFlood flood-opacity="0" result="BackgroundImageFix"/>
<feColorMatrix in="SourceAlpha" type="matrix" values="0 0 0 0 0 0 0 0 0 0 0 0 0 0 0 0 0 0 127 0" result="hardAlpha"/>
<feMorphology radius="8" operator="dilate" in="SourceAlpha" result="effect1_dropShadow_731_3172"/>
<feOffset/>
<feComposite in2="hardAlpha" operator="out"/>
<feColorMatrix type="matrix" values="0 0 0 0 0.0470588 0 0 0 0 0.54902 0 0 0 0 0.913725 0 0 0 0.2 0"/>
<feBlend mode="normal" in2="BackgroundImageFix" result="effect1_dropShadow_731_3172"/>
<feBlend mode="normal" in="SourceGraphic" in2="effect1_dropShadow_731_3172" result="shape"/>
</filter>
</defs>
</svg>
